# xmcd CD database file
#
# Track frame offsets:
#	150
#	1248
#	6138
#	8865
#	21453
#	23318
#	32970
#	37095
#	48275
#	56015
#	65063
#	77242
#	92315
#	100007
#	106707
#	116267
#	117435
#	126325
#	135200
#	147760
#	153413
#	164397
#	171365
#	175475
#	183690
#	193550
#	204140
#	215428
#	227590
#	242143
#	252535
#	257910
#	266343
#
# Disc length: 3559 seconds
#
# Revision: 0
# Processed by: cddbd v1.4PL0 Copyright (c) Steve Scherf et al.
# Submitted via: CDex 1.50
#
DISCID=bb0de521
DTITLE=Various Artist - Tribute Grand Ole Opry Stars Of The Fifties
DYEAR=1994
DGENRE=Country
TTITLE0=Intro Disclaimer
TTITLE1=Solemn Old Judge - Founder
TTITLE2=Ron Allen - narrative
TTITLE3=Adv For Film Library
TTITLE4=Carl Smith - Intro
TTITLE5=Jimmy Dickens - Goin' Down The Road
TTITLE6=Solemn Old Judge
TTITLE7=Del Wood - Listen To The Mockingbird
TTITLE8=Minnie Pearl and Jimmy Dickens - Comedy
TTITLE9=Chet Atkins - Georgia Camp Meeting
TTITLE10=Bill Monroe - Roanoke Breakdown
TTITLE11=Minnie Pearl and Rod Brasfield - Comedy
TTITLE12=Grand Ole Opry - Adv
TTITLE13=Chet Atkins - Bill Bailey
TTITLE14=Rita Faye - Boll Weevil
TTITLE15=Jimmie Dickens - Intro
TTITLE16=Stringbean - Little Liza Jane
TTITLE17=Grandpa Jones - Wasn't He One Big Boy
TTITLE18=Minnie Pearl and Rod Brasfield - Comedy
TTITLE19=Crook Brothers - Grey Eagle
TTITLE20=Jordanaires - That Old Time Religion
TTITLE21=Advertisement
TTITLE22=Grandpa Jones - Cindy, Cindy
TTITLE23=Lew Chidre - Swanee River
TTITLE24=Eddie Hill - Molasses
TTITLE25=Old Hickory Quartet - I'll Be In My Dixie Home
TTITLE26=Minnie Pearl - Comedy
TTITLE27=Jimmie Dickens - John Henry
TTITLE28=Carter Sisters - Humming Bird
TTITLE29=Bill Monroe - Swing Low Sweet Chariot
TTITLE30=Tribute Family - Grand Ole Opry Theme
TTITLE31=Adv - Film Library
TTITLE32=Disclaimer
EXTD=YEAR: 1994
EXTT0=
EXTT1=
EXTT2=
EXTT3=
EXTT4=
EXTT5=
EXTT6=
EXTT7=
EXTT8=
EXTT9=
EXTT10=
EXTT11=
EXTT12=
EXTT13=
EXTT14=
EXTT15=
EXTT16=
EXTT17=
EXTT18=
EXTT19=
EXTT20=
EXTT21=
EXTT22=
EXTT23=
EXTT24=
EXTT25=
EXTT26=
EXTT27=
EXTT28=
EXTT29=
EXTT30=
EXTT31=
EXTT32=
PLAYORDER=
